<?xml version="1.0" encoding="utf-8"?>
<!-- Generator: Adobe Illustrator 15.1.0, SVG Export Plug-In  -->
<!DOCTYPE svg PUBLIC "-//W3C//DTD SVG 1.1//EN" "http://www.w3.org/Graphics/SVG/1.1/DTD/svg11.dtd" [
	<!ENTITY ns_flows "http://ns.adobe.com/Flows/1.0/">
]>
<svg version="1.1"
	 xmlns="http://www.w3.org/2000/svg" xmlns:xlink="http://www.w3.org/1999/xlink" xmlns:a="http://ns.adobe.com/AdobeSVGViewerExtensions/3.0/"
	 x="0px" y="0px" width="160px" height="140px" viewBox="-1.942 -4.502 160 140" enable-background="new -1.942 -4.502 160 140"
	 xml:space="preserve">
<defs>
</defs>
<circle fill="#F89A1C" cx="47.092" cy="51.264" r="6.629"/>
<path fill="#F89A1C" d="M73.75,27.04l0.635,11.413c12.522-0.695,21.017,0.945,29.321,5.664l5.647-9.938
	C99.107,28.358,88.46,26.223,73.75,27.04z"/>
<path fill="#F89A1C" d="M156.074,25.097l-10.865,3.551c2.483,7.598,1.359,12.024-0.71,14.794
	c-4.588-8.405-11.584-15.976-20.398-21.852C111.382,13.112,95.82,8.99,76.523,8.99c-4.882,0-9.501,0.261-13.036,0.517
	C51.724,0.756,40.61,0,29.332,0c-1.938,0-3.963,0.028-5.872,0.058l-7.062,0.107l1.578,6.884c0.179,0.778,3.817,16.631,6.176,25.25
	c-3.013,3.111-5.478,6.825-7.358,9.802c-4.503,2.277-13.406,6.458-13.506,6.504L0,50.147v37.031l3.644,1.417
	c0.107,0.042,9.413,3.66,15.431,5.951c2.568,6.1,7.607,12.494,14.54,18.438l-1.628,20.349H70.15l1.695-1.816
	c0.107-0.113,2.015-2.167,4.212-5.142c5.908,1.135,12.546,0.827,19.523-0.879l5.775,7.837h38.968l-0.432-6.117
	c-0.059-0.828-1.295-18.313-1.884-25.778c5.068-6.878,8.654-13.909,10.669-20.932c2.035-7.084,2.493-14.206,1.363-21.164
	c-0.245-1.508-0.569-3.005-0.962-4.49c4.917-3.752,7.928-8.853,8.75-14.865C158.435,35.524,157.845,30.515,156.074,25.097z
	 M127.622,96.219l-1.376,1.77l0.194,2.234c0.299,3.441,1.106,14.591,1.614,21.679h-20.922l-7.109-9.647l-3.894,1.225
	c-4.521,1.421-8.809,2.141-12.742,2.141c-2.906,0-5.587-0.403-7.969-1.197l-4.248-1.416l-2.392,3.786
	c-1.276,2.021-2.682,3.844-3.725,5.109H44.367l1.121-14.011l-2.386-1.896c-7.365-5.849-12.498-12.23-14.082-17.511l-0.815-2.715
	l-2.653-0.994c-3.541-1.328-10.042-3.84-14.123-5.42V57.4c3.663-1.737,9.402-4.485,12.047-5.885l1.358-0.72l0.815-1.303
	c2.061-3.299,5.177-8.284,8.492-10.862l3.155-2.454l-1.224-3.806c-1.247-3.878-3.702-14.014-5.337-20.934
	c11.446,0.104,18.993,1.565,27.386,8.375l1.776,1.44l2.28-0.182c3.487-0.279,8.769-0.65,14.344-0.65
	c16.968,0,30.457,3.494,41.238,10.682c5.433,3.622,18.355,13.802,20.995,30.071C140.603,72.553,136.857,84.345,127.622,96.219z"/>
<path fill="#0777BE" d="M81.902,68.924h3.736h4.325H93.7c2.097,0,3.803-1.705,3.803-3.802S95.797,61.32,93.7,61.32
	c-0.96,0-1.876,0.359-2.582,1.012c-0.125,0.115-0.344,0.366-0.366,0.393c0,0-0.129,0.167-0.13,0.167c0,0,0.001-0.002,0.003-0.004
	l-2.824,3.617l-2.795-3.575c-0.003-0.005-0.157-0.205-0.179-0.231c0,0-0.219-0.251-0.345-0.367
	c-0.705-0.651-1.621-1.011-2.581-1.011c-2.097,0-3.803,1.706-3.803,3.803S79.805,68.924,81.902,68.924z M91.722,63.73l0.097-0.128
	c0.004-0.003,0.153-0.178,0.238-0.256c0.449-0.415,1.033-0.643,1.643-0.643c1.334,0,2.42,1.085,2.42,2.419s-1.085,2.419-2.42,2.419
	H88.74L91.722,63.73z M81.902,62.704c0.61,0,1.194,0.228,1.643,0.643c0.08,0.074,0.216,0.232,0.217,0.232l3.098,3.963h-4.958
	c-1.334,0-2.42-1.085-2.42-2.419S80.568,62.704,81.902,62.704z"/>
<rect x="77.115" y="77.853" fill="#0777BE" width="9.563" height="11.811"/>
<rect x="75.732" y="71.112" fill="#0777BE" width="10.945" height="4.726"/>
<rect x="88.924" y="77.853" fill="#0777BE" width="9.563" height="11.811"/>
<rect x="88.924" y="71.112" fill="#0777BE" width="10.945" height="4.726"/>
<path fill="#0777BE" d="M101.14,50.33H74.462c-4.193,0-7.604,3.411-7.604,7.604V95.61c0,4.193,3.411,7.604,7.604,7.604h26.677
	c4.193,0,7.604-3.411,7.604-7.604V57.934C108.744,53.741,105.333,50.33,101.14,50.33z M83.855,102.259
	c-0.625,0-1.132-0.508-1.132-1.132c0-0.626,0.507-1.133,1.132-1.133s1.132,0.507,1.132,1.133
	C84.987,101.751,84.48,102.259,83.855,102.259z M87.801,102.259c-0.625,0-1.132-0.508-1.132-1.132c0-0.626,0.507-1.133,1.132-1.133
	s1.132,0.507,1.132,1.133C88.934,101.751,88.427,102.259,87.801,102.259z M91.748,102.259c-0.626,0-1.133-0.508-1.133-1.132
	c0-0.626,0.507-1.133,1.133-1.133c0.625,0,1.132,0.507,1.132,1.133C92.88,101.751,92.373,102.259,91.748,102.259z M104.596,95.61
	c0,1.906-1.551,3.457-3.457,3.457H74.462c-1.905,0-3.457-1.551-3.457-3.457V57.934c0-1.906,1.551-3.457,3.457-3.457h26.677
	c1.905,0,3.457,1.551,3.457,3.457V95.61z"/>
</svg>
