<?xml version="1.0" standalone="no"?>
<!DOCTYPE svg PUBLIC "-//W3C//DTD SVG 20010904//EN"
 "http://www.w3.org/TR/2001/REC-SVG-20010904/DTD/svg10.dtd">
<svg version="1.0" xmlns="http://www.w3.org/2000/svg"
 width="700.000000pt" height="700.000000pt" viewBox="0 0 700.000000 700.000000"
 preserveAspectRatio="xMidYMid meet">
<metadata>
Created by potrace 1.11, written by Peter Selinger 2001-2013
</metadata>
<g transform="translate(0.000000,700.000000) scale(0.100000,-0.100000)"
fill="#000000" stroke="none">
<path d="M3766 6907 c3 -7 27 -29 52 -51 156 -130 561 -531 758 -751 217 -243
464 -551 584 -730 19 -27 36 -52 39 -55 3 -3 11 -14 18 -25 6 -11 45 -74 86
-140 99 -160 161 -270 215 -385 59 -128 64 -140 50 -140 -9 0 -166 -115 -227
-166 -73 -62 -540 -391 -606 -428 -16 -9 -52 -31 -80 -48 -27 -17 -70 -42 -94
-56 l-44 -24 -381 -1 c-345 0 -654 7 -841 18 -38 2 -132 7 -208 10 -76 3 -160
8 -185 10 -26 2 -92 7 -147 10 -55 3 -122 7 -150 10 -27 2 -90 7 -140 10 -49
3 -103 8 -120 10 -16 2 -70 7 -119 11 -49 3 -98 7 -110 9 -11 2 -61 6 -111 10
-49 3 -103 8 -120 11 -16 2 -50 6 -75 8 -75 7 -173 17 -205 21 -16 2 -66 6
-110 10 -44 4 -82 8 -85 10 -3 2 -41 6 -85 10 -44 4 -87 8 -95 10 -8 1 -44 6
-80 10 -36 3 -76 8 -90 10 -46 7 -105 14 -152 20 -60 6 -137 16 -163 20 -68
10 -139 17 -135 12 3 -2 24 -7 47 -10 22 -4 52 -8 65 -11 12 -3 39 -8 58 -11
19 -2 46 -7 60 -10 14 -3 54 -10 90 -15 36 -6 76 -13 90 -15 14 -3 79 -14 145
-25 66 -12 130 -23 143 -25 12 -2 30 -6 40 -9 9 -3 35 -7 57 -11 22 -3 65 -10
95 -15 30 -5 73 -12 95 -15 22 -4 47 -8 55 -10 8 -2 33 -7 55 -10 23 -3 52 -8
65 -11 35 -7 62 -12 160 -30 47 -9 92 -18 101 -19 9 -2 32 -6 50 -9 19 -3 43
-8 54 -10 11 -2 56 -11 99 -20 140 -30 349 -75 436 -96 47 -12 99 -23 115 -26
121 -23 656 -189 775 -241 l43 -18 -194 -63 c-107 -34 -203 -64 -214 -67 -11
-2 -69 -18 -130 -35 -172 -49 -606 -152 -738 -176 -18 -3 -52 -10 -77 -15 -25
-6 -57 -12 -72 -14 -16 -2 -88 -15 -160 -29 -73 -13 -162 -29 -198 -35 -36 -6
-78 -13 -95 -16 -16 -3 -48 -8 -70 -10 -35 -5 -191 -28 -265 -40 -14 -2 -45
-6 -70 -10 -25 -4 -56 -8 -70 -10 -31 -5 -353 -45 -400 -50 -49 -5 -140 -16
-169 -21 -13 -2 -61 -6 -107 -10 -46 -4 -84 -10 -84 -15 0 -4 9 -6 19 -4 11 2
68 6 128 10 59 3 124 8 143 10 19 2 80 7 135 11 55 3 118 8 140 9 22 2 87 7
145 10 58 4 121 8 140 10 19 2 85 6 145 10 61 3 126 8 145 10 19 3 76 7 125
10 197 12 252 16 305 20 30 2 96 7 145 10 224 14 348 22 445 30 30 2 105 7
165 10 61 3 142 8 180 10 39 3 115 7 170 10 55 3 134 7 175 10 151 9 279 16
386 20 60 2 190 7 289 10 337 13 305 15 350 -19 223 -170 436 -415 564 -650
l31 -58 -66 -77 c-185 -213 -456 -491 -683 -701 -69 -63 -136 -126 -151 -140
-14 -14 -89 -79 -166 -144 -76 -66 -143 -125 -149 -131 -5 -6 -46 -39 -90 -75
-44 -35 -82 -67 -85 -70 -3 -3 -25 -21 -50 -40 -25 -19 -47 -37 -50 -40 -3 -4
-52 -43 -110 -88 -58 -45 -109 -85 -115 -90 -136 -109 -555 -411 -780 -561
-167 -112 -175 -118 -110 -93 441 174 832 349 1285 576 168 84 346 175 395
203 50 27 119 66 155 85 68 37 234 131 260 148 8 5 40 23 70 41 211 121 633
398 865 567 142 104 365 276 409 317 6 6 27 23 46 39 145 119 511 476 576 562
16 21 40 49 53 63 13 15 35 43 49 63 l25 38 -31 92 c-28 85 -54 211 -66 311
-4 39 -4 39 52 63 98 43 214 105 305 164 l88 57 -38 34 c-53 48 -156 120 -235
163 -38 21 -68 42 -68 48 0 11 84 173 114 223 44 69 73 113 109 163 l39 53
-17 42 c-106 266 -398 692 -680 992 -141 150 -347 353 -479 470 -44 39 -84 75
-90 80 -33 31 -246 203 -341 277 -293 226 -662 471 -940 623 -209 115 -508
254 -499 232z"/>
<path d="M413 2873 c15 -2 37 -2 50 0 12 2 0 4 -28 4 -27 0 -38 -2 -22 -4z"/>
</g>
</svg>
