<?xml version="1.0" encoding="utf-8"?>
<!-- Generator: Adobe Illustrator 15.1.0, SVG Export Plug-In . SVG Version: 6.00 Build 0)  -->
<!DOCTYPE svg PUBLIC "-//W3C//DTD SVG 1.1//EN" "http://www.w3.org/Graphics/SVG/1.1/DTD/svg11.dtd">
<svg version="1.1" id="Layer_1" xmlns="http://www.w3.org/2000/svg" xmlns:xlink="http://www.w3.org/1999/xlink" x="0px" y="0px"
	 width="96.075px" height="30px" viewBox="0 0 96.075 30" enable-background="new 0 0 96.075 30" xml:space="preserve">
<path fill="#CD3E23" d="M96.048,3.315c0.008-0.09,0.027-0.178,0.027-0.27c0-1.64-1.329-2.968-2.968-2.968
	c-0.129,0-0.251,0.022-0.376,0.038l-0.004-0.011L16.164,0c-0.851,0-1.614,0.363-2.155,0.938l-0.006-0.004L2.271,12.776v0.003
	C1.653,13.323,1.254,14.111,1.254,15s0.398,1.677,1.017,2.221v0.05l11.7,11.848C14.509,29.663,15.255,30,16.08,30
	c0.115,0,0.224-0.021,0.335-0.034L16.513,30h76.594c1.64,0,2.968-1.329,2.968-2.968l0.063-23.692L96.048,3.315z M6.789,16.949
	c-1.188,0-2.151-0.963-2.151-2.151s0.962-2.151,2.151-2.151S8.94,13.61,8.94,14.798S7.978,16.949,6.789,16.949z"/>
<g>
	<path fill="#FFFFFF" d="M29.942,12.422v-2.176c0-0.762-0.239-1.197-0.958-1.197c-0.783,0-0.957,0.435-0.957,1.197
		c0,2.611,5.527,3.373,5.527,8.16c0,2.916-1.567,4.265-4.591,4.265c-2.307,0-4.548-0.783-4.548-3.46v-2.872h3.612v2.676
		c0,0.914,0.283,1.175,0.957,1.175c0.588,0,0.958-0.261,0.958-1.175c0-3.503-5.527-3.568-5.527-8.573
		c0-2.807,1.85-3.873,4.635-3.873c2.437,0,4.504,0.827,4.504,3.416v2.437H29.942z"/>
	<path fill="#FFFFFF" d="M38.124,22.366h-3.612V6.874h4.417c2.872,0,4.722,0.652,4.722,3.329v2.829c0,2.328-2.067,3.351-4.2,3.351
		h-1.327V22.366z M38.124,14.163h0.565c1.262,0,1.349-0.696,1.349-2.524c0-1.828-0.087-2.546-1.349-2.546h-0.565V14.163z"/>
	<path fill="#FFFFFF" d="M52.094,6.874v2.35h-3.873v3.395h3.742v2.35h-3.742v5.048h3.873v2.35h-7.485V6.874H52.094z"/>
	<path fill="#FFFFFF" d="M58.23,12.4v-2.132c0-0.631-0.196-1.218-0.979-1.218c-0.74,0-0.936,0.587-0.936,1.218v8.704
		c0,0.631,0.196,1.219,0.936,1.219c0.783,0,0.979-0.587,0.979-1.219v-2.633h3.612v2.045c0,2.894-1.545,4.287-4.591,4.287
		c-2.394,0-4.548-0.979-4.548-4.526v-7.05c0-3.547,2.154-4.526,4.548-4.526c2.633,0,4.591,0.783,4.591,4.134V12.4H58.23z"/>
	<path fill="#FFFFFF" d="M66.412,22.366H62.8V6.874h3.612V22.366z"/>
	<path fill="#FFFFFF" d="M74.725,6.874l2.001,15.492h-3.59l-0.413-3.808h-1.958l-0.587,3.808H67.13l2.633-15.492H74.725z
		 M72.461,16.208L71.831,9.31h-0.043l-0.631,6.898H72.461z"/>
	<path fill="#FFFFFF" d="M81.079,20.016h3.917v2.35h-7.529V6.874h3.612V20.016z"/>
</g>
</svg>
