<?xml version="1.0" encoding="utf-8"?>
<!-- Generator: Adobe Illustrator 15.1.0, SVG Export Plug-In . SVG Version: 6.00 Build 0)  -->
<!DOCTYPE svg PUBLIC "-//W3C//DTD SVG 1.1//EN" "http://www.w3.org/Graphics/SVG/1.1/DTD/svg11.dtd">
<svg version="1.1" id="Layer_1" xmlns="http://www.w3.org/2000/svg" xmlns:xlink="http://www.w3.org/1999/xlink" x="0px" y="0px"
	 width="64px" height="64px" viewBox="0 0 64 64" enable-background="new 0 0 64 64" xml:space="preserve">
<g>
	<polygon fill="#E30613" points="0,64 0,0 64,0 	"/>
	<g>
		<path fill="#FFFFFF" d="M15.471,30.03l-3.203,3.203l-0.983-0.982c-0.459-0.459-0.792-0.71-1-0.753
			c-0.208-0.044-0.407,0.029-0.598,0.221c-0.208,0.208-0.28,0.449-0.217,0.725c0.063,0.276,0.267,0.587,0.611,0.931
			c0.442,0.442,0.836,0.717,1.18,0.82c0.338,0.109,0.934,0.056,1.786-0.164c2.447-0.623,4.161-0.843,5.145-0.657
			c0.983,0.187,2.125,0.929,3.425,2.229c0.945,0.944,1.531,1.752,1.757,2.421c0.227,0.67,0.175,1.473-0.155,2.408
			c-0.33,0.938-0.916,1.826-1.758,2.668c-0.923,0.922-1.886,1.535-2.888,1.838c-1.002,0.305-1.875,0.287-2.618-0.053
			c-0.743-0.338-1.611-1.004-2.605-1.998l-0.869-0.869l3.204-3.203l1.614,1.613c0.497,0.498,0.861,0.771,1.094,0.824
			c0.232,0.051,0.463-0.037,0.692-0.268c0.229-0.229,0.31-0.488,0.241-0.781s-0.28-0.615-0.635-0.971
			c-0.781-0.781-1.398-1.186-1.852-1.213c-0.459-0.021-1.398,0.115-2.818,0.41c-1.425,0.289-2.406,0.445-2.941,0.467
			s-1.121-0.103-1.757-0.373c-0.637-0.271-1.306-0.758-2.011-1.463c-1.016-1.016-1.629-1.888-1.839-2.617
			c-0.211-0.729-0.159-1.515,0.155-2.359c0.314-0.844,0.881-1.676,1.7-2.495c0.896-0.896,1.804-1.514,2.724-1.855
			c0.92-0.341,1.702-0.395,2.347-0.16c0.645,0.235,1.494,0.88,2.548,1.934L15.471,30.03z"/>
		<path fill="#FFFFFF" d="M18.788,18.685l15.236,11.292l-3.525,3.526l-2.569-2.2l-1.233,1.234l2.177,2.591l-3.566,3.566
			L13.802,23.67L18.788,18.685z M25.488,29.042c-1.677-1.328-3.709-3.01-6.097-5.046c2.188,2.891,3.825,4.969,4.909,6.233
			L25.488,29.042z"/>
		<path fill="#FFFFFF" d="M24.794,12.677l10.61,10.61l2.098-2.097l2.654,2.654l-5.547,5.546L21.345,16.126L24.794,12.677z"/>
		<path fill="#FFFFFF" d="M27.728,9.744l5.75-5.75l2.654,2.654l-2.301,2.302l2.516,2.515l2.154-2.154l2.523,2.523l-2.156,2.154
			l2.918,2.917l2.531-2.531l2.654,2.654l-5.98,5.98L27.728,9.744z"/>
	</g>
</g>
</svg>
