<?xml version="1.0" encoding="utf-8"?>
<!-- Generator: Adobe Illustrator 15.1.0, SVG Export Plug-In  -->
<!DOCTYPE svg PUBLIC "-//W3C//DTD SVG 1.1//EN" "http://www.w3.org/Graphics/SVG/1.1/DTD/svg11.dtd" [
	<!ENTITY ns_flows "http://ns.adobe.com/Flows/1.0/">
]>
<svg version="1.1"
	 xmlns="http://www.w3.org/2000/svg" xmlns:xlink="http://www.w3.org/1999/xlink" xmlns:a="http://ns.adobe.com/AdobeSVGViewerExtensions/3.0/"
	 x="0px" y="0px" width="96px" height="30px" viewBox="-1.254 0 96 30" enable-background="new -1.254 0 96 30"
	 xml:space="preserve">
<defs>
</defs>
<path fill="#4169B2" d="M94.793,3.315c0.008-0.09,0.027-0.178,0.027-0.27c0-1.64-1.329-2.968-2.968-2.968
	c-0.129,0-0.251,0.022-0.376,0.038l-0.004-0.011L14.909,0c-0.851,0-1.614,0.363-2.155,0.938l-0.006-0.004L1.017,12.776v0.003
	C0.398,13.323,0,14.111,0,15s0.398,1.677,1.017,2.221v0.05l11.7,11.848C13.255,29.663,14,30,14.826,30
	c0.115,0,0.224-0.021,0.335-0.034L15.258,30h76.594c1.64,0,2.968-1.329,2.968-2.968l0.063-23.692L94.793,3.315z M5.535,16.949
	c-1.188,0-2.151-0.963-2.151-2.151s0.962-2.151,2.151-2.151s2.151,0.963,2.151,2.151S6.723,16.949,5.535,16.949z"/>
<path display="none" fill="#FFFFFF" d="M21.196,7.106h3.997c1.081,0,1.912,0.084,2.493,0.254c0.581,0.169,1.018,0.415,1.31,0.735
	c0.292,0.321,0.49,0.708,0.594,1.164c0.104,0.456,0.155,1.161,0.155,2.116v1.329c0,0.974-0.101,1.684-0.302,2.13
	c-0.201,0.446-0.57,0.789-1.107,1.027c-0.537,0.239-1.239,0.358-2.106,0.358h-1.065v6.146h-3.968V7.106z M25.164,9.717V13.6
	c0.113,0.006,0.21,0.01,0.292,0.01c0.365,0,0.618-0.09,0.759-0.269c0.142-0.179,0.212-0.551,0.212-1.117v-1.253
	c0-0.521-0.082-0.861-0.245-1.018C26.019,9.796,25.679,9.717,25.164,9.717z"/>
<path display="none" fill="#FFFFFF" d="M39.952,16.042c0,1.533-0.036,2.619-0.108,3.256s-0.298,1.221-0.679,1.749
	s-0.894,0.933-1.541,1.216c-0.647,0.283-1.401,0.424-2.262,0.424c-0.817,0-1.55-0.133-2.201-0.4s-1.173-0.667-1.569-1.202
	s-0.631-1.115-0.707-1.744c-0.075-0.628-0.113-1.728-0.113-3.299v-2.611c0-1.533,0.036-2.619,0.108-3.256s0.298-1.221,0.679-1.749
	c0.38-0.528,0.894-0.933,1.541-1.216c0.647-0.283,1.401-0.424,2.262-0.424c0.817,0,1.551,0.134,2.201,0.401
	c0.65,0.267,1.173,0.667,1.569,1.202c0.396,0.534,0.631,1.115,0.707,1.744c0.076,0.628,0.113,1.728,0.113,3.299V16.042z
	 M35.984,11.027c0-0.71-0.039-1.164-0.118-1.362c-0.079-0.198-0.24-0.297-0.485-0.297c-0.208,0-0.366,0.08-0.476,0.24
	c-0.11,0.161-0.165,0.633-0.165,1.419v7.125c0,0.886,0.036,1.433,0.108,1.64c0.072,0.208,0.241,0.311,0.504,0.311
	c0.27,0,0.443-0.119,0.519-0.358c0.075-0.239,0.113-0.808,0.113-1.706V11.027z"/>
<path display="none" fill="#FFFFFF" d="M41.432,7.106h3.997c1.081,0,1.912,0.084,2.493,0.254c0.581,0.169,1.018,0.415,1.31,0.735
	c0.292,0.321,0.49,0.708,0.594,1.164c0.104,0.456,0.155,1.161,0.155,2.116v1.329c0,0.974-0.101,1.684-0.301,2.13
	c-0.201,0.446-0.57,0.789-1.108,1.027c-0.537,0.239-1.239,0.358-2.106,0.358H45.4v6.146h-3.968V7.106z M45.4,9.717V13.6
	c0.113,0.006,0.21,0.01,0.292,0.01c0.365,0,0.618-0.09,0.759-0.269c0.142-0.179,0.212-0.551,0.212-1.117v-1.253
	c0-0.521-0.082-0.861-0.245-1.018C46.254,9.796,45.915,9.717,45.4,9.717z"/>
<path display="none" fill="#FFFFFF" d="M60.141,7.106v10.198c0,1.156-0.038,1.969-0.113,2.437c-0.076,0.468-0.299,0.949-0.669,1.442
	c-0.371,0.494-0.859,0.867-1.465,1.122c-0.606,0.254-1.321,0.381-2.145,0.381c-0.911,0-1.715-0.151-2.413-0.452
	c-0.698-0.302-1.219-0.694-1.565-1.178s-0.55-0.995-0.612-1.532c-0.063-0.537-0.094-1.667-0.094-3.388V7.106h3.968v11.442
	c0,0.666,0.036,1.092,0.108,1.277s0.218,0.278,0.438,0.278c0.251,0,0.413-0.102,0.485-0.306s0.108-0.687,0.108-1.447V7.106H60.141z"
	/>
<path display="none" fill="#FFFFFF" d="M65.646,7.106v12.206h2.413v3.054h-6.381V7.106H65.646z"/>
<path display="none" fill="#FFFFFF" d="M76.359,7.106l2.269,15.259h-4.055l-0.213-2.743h-1.419l-0.238,2.743H68.6l2.024-15.259
	H76.359z M74.256,16.918c-0.201-1.729-0.402-3.865-0.604-6.409c-0.404,2.922-0.658,5.059-0.761,6.409H74.256z"/>
<path display="none" fill="#FFFFFF" d="M79.302,7.106h2.809c1.872,0,3.14,0.072,3.803,0.217c0.663,0.145,1.204,0.514,1.622,1.107
	c0.417,0.594,0.626,1.541,0.626,2.841c0,1.188-0.147,1.986-0.443,2.394c-0.295,0.409-0.876,0.654-1.744,0.735
	c0.785,0.195,1.313,0.456,1.583,0.782c0.27,0.327,0.438,0.627,0.504,0.9c0.066,0.273,0.099,1.026,0.099,2.257v4.024h-3.685v-5.071
	c0-0.817-0.064-1.323-0.193-1.518c-0.129-0.194-0.466-0.292-1.013-0.292v6.88h-3.968V7.106z M83.271,9.717v3.394
	c0.446,0,0.759-0.062,0.938-0.184c0.179-0.123,0.269-0.52,0.269-1.192v-0.839c0-0.483-0.086-0.801-0.259-0.952
	S83.729,9.717,83.271,9.717z"/>
<path fill="#FFFFFF" d="M30.056,7.106v15.259h-3.478l-2.064-6.937v6.937h-3.318V7.106h3.318l2.225,6.871V7.106H30.056z"/>
<path fill="#FFFFFF" d="M31.648,7.106h6.617v3.054h-2.648v2.894h2.479v2.903h-2.479v3.355h2.913v3.054h-6.881V7.106z"/>
<path fill="#FFFFFF" d="M54.609,7.106l-1.767,15.259h-4.954c-0.454-2.344-0.854-5.012-1.201-8.002
	c-0.158,1.282-0.527,3.949-1.106,8.002h-4.926L38.878,7.106h3.855l0.419,5.324l0.405,5.147c0.146-2.664,0.512-6.154,1.097-10.471
	h4.121c0.055,0.446,0.199,2.124,0.433,5.033l0.438,5.806c0.226-3.694,0.595-7.307,1.107-10.839H54.609z"/>
</svg>
